<?xml version="1.0" encoding="utf-8"?>
<!-- Generator: Adobe Illustrator 17.0.0, SVG Export Plug-In . SVG Version: 6.00 Build 0)  -->
<!DOCTYPE svg PUBLIC "-//W3C//DTD SVG 1.1//EN" "http://www.w3.org/Graphics/SVG/1.1/DTD/svg11.dtd">
<svg version="1.1" id="Layer_1" xmlns="http://www.w3.org/2000/svg" xmlns:xlink="http://www.w3.org/1999/xlink" x="0px" y="0px"
	 width="500px" height="500px" viewBox="0 0 500 500" enable-background="new 0 0 500 500" xml:space="preserve">
<polygon fill="#999999" points="0,170.01 5.685,5.685 170.01,0 "/>
<polygon fill="#999999" points="170.01,500 5.685,494.315 0,329.99 "/>
<polygon fill="#999999" points="500.335,329.99 494.65,494.315 330.325,500 "/>
<polygon fill="#999999" points="330.325,0 494.65,5.685 500.335,170.01 "/>
<rect x="260.018" y="119.047" transform="matrix(0.7071 -0.7071 0.7071 0.7071 -1.3786 290.5356)" fill="#999999" width="180" height="55.769"/>
<rect x="59.866" y="119.047" transform="matrix(0.7071 0.7071 -0.7071 0.7071 147.7914 -62.9362)" fill="#999999" width="180" height="55.769"/>
<rect x="59.866" y="324.197" transform="matrix(0.7071 -0.7071 0.7071 0.7071 -205.0647 209.094)" fill="#999999" width="180" height="55.769"/>
<rect x="264.036" y="321.163" transform="matrix(0.7071 0.7071 -0.7071 0.7071 350.5085 -148.1079)" fill="#999999" width="180" height="55.769"/>
</svg>
