<?xml version="1.0" encoding="utf-8"?>
<!-- Generator: Adobe Illustrator 17.0.0, SVG Export Plug-In . SVG Version: 6.00 Build 0)  -->
<!DOCTYPE svg PUBLIC "-//W3C//DTD SVG 1.1//EN" "http://www.w3.org/Graphics/SVG/1.1/DTD/svg11.dtd">
<svg version="1.1" id="Layer_1" xmlns="http://www.w3.org/2000/svg" xmlns:xlink="http://www.w3.org/1999/xlink" x="0px" y="0px"
	 width="500px" height="500px" viewBox="0 0 500 500" enable-background="new 0 0 500 500" xml:space="preserve">
<polygon fill="#999999" points="266.661,438.735 272.347,274.41 436.672,268.725 "/>
<polygon fill="#999999" points="436.672,231.275 272.347,225.59 266.661,61.265 "/>
<polygon fill="#999999" points="229.656,64.299 223.971,228.624 59.646,234.31 "/>
<polygon fill="#999999" points="63.664,268.725 227.989,274.41 233.674,438.735 "/>
<rect x="-6.643" y="387.772" transform="matrix(0.7071 -0.7071 0.7071 0.7071 -269.499 180.6853)" fill="#999999" width="180" height="55.769"/>
<rect x="326.528" y="387.772" transform="matrix(0.7071 0.7071 -0.7071 0.7071 415.9118 -172.7864)" fill="#999999" width="180" height="55.769"/>
<rect x="326.528" y="55.472" transform="matrix(0.7071 -0.7071 0.7071 0.7071 63.0558 318.9442)" fill="#999999" width="180" height="55.769"/>
<rect x="-6.643" y="55.472" transform="matrix(0.7071 0.7071 -0.7071 0.7071 83.357 -34.5276)" fill="#999999" width="180" height="55.769"/>
</svg>
